<svg xmlns="http://www.w3.org/2000/svg" width="29" height="33" viewBox="0 0 29 33">
  <defs>
    <style>
      .cls-1 {
        fill: #fff;
        fill-rule: evenodd;
      }
    </style>
  </defs>
  <path id="rock_svg" data-name="rock svg" class="cls-1" d="M90,52H79l-9-6,1-2,3-2,2-2,3-2,3,1,3,2,4,1,4,2,5,2-3,3ZM72,48l3,2,2,2,2,1v4l1,4v6l1,2,1,1-3-1-3-2-2-2-1-4-2-7-1-4-1-2,1-1ZM83,69l-1-1-1-1V64s0.02-2.907,0-3a12.832,12.832,0,0,0-1-1V53h2l-1,2v4l1,1,1,1V60l-1-3V53h6l2,2V68l-1,2-5,1-1-3V62l-1,2v2Zm7-16,1-1h1v1l-1,1H90V53Zm3,0,2-3,3-2L95,58,92,68l-1,1,1-14Z" transform="translate(-69 -38)"/>
</svg>
