<svg xmlns="http://www.w3.org/2000/svg" width="29" height="33" viewBox="0 0 29 33">
  <defs>
    <style>
      .cls-1 {
        fill: #fff;
        fill-rule: evenodd;
      }
    </style>
  </defs>
  <path id="rock_svg" data-name="rock svg" class="cls-1" d="M70,46l9,6H90l3-1,5-5-4-1s-5.875-3.047-6-3-5-2-5-2l-3-2-5,3-3,3-2,2m28,2L95,58,92,68l-1,1,1-14,1-2,2-3Zm-6,4v1l-1,1H90V53l1-1h1Zm-4,1,2,2V68l-1,2-5,1-1-3V60l-1-3V53h6m-6,0H80v7a12.832,12.832,0,0,1,1,1c0.02,0.093,0,3,0,3v3l1,1,1,1-1-3V64l1-2V61l-1-1-1-1V55Zm-3,0v4l1,4v6l1,2,1,1-3-1-3-2-2-2-1-4-2-7-1-4-1-2,1-1,2,1,3,2,2,2Zm-9-7,9,6H90l2-1,3-2,3-3-5-2-4-2-4-1-3-2-3-1-3,2-2,2-3,2Z" transform="translate(-69 -38)"/>
</svg>
