<svg xmlns="http://www.w3.org/2000/svg" width="64" height="64" viewBox="0 0 64 64">
  <defs>
    <style>
      .cls-1 {
        fill: #fff;
        fill-rule: evenodd;
      }
    </style>
  </defs>
  <path class="cls-1" d="M32.113,0.119L5,14.612l13.169-.763L6.549,29.1l12.394-4.576L14.3,45.885,25.141,32.918l6.972,30.51s0.361,1.306.775,0S39.859,33.68,39.859,33.68L50.7,45.885,46.056,24.527,58.451,29.1,46.831,13.849,60,14.612,32.887,0.119A0.716,0.716,0,0,0,32.113.119Zm-1.549,9.916V16.9H23.592v3.814h6.972v6.865h3.873V20.714h6.972V16.9H34.437V10.035H30.563Z" transform="translate(-0.5)"/>
</svg>
