<svg xmlns="http://www.w3.org/2000/svg" width="26" height="34.656" viewBox="0 0 26 34.656">
  <defs>
    <style>
      .cls-1 {
        fill: #fff;
        fill-rule: evenodd;
      }
    </style>
  </defs>
  <path id="flower_svg" data-name="flower svg" class="cls-1" d="M70,74s10.642,1.866,11-9a1.451,1.451,0,0,1,1-1s7.746-.517,8-10a6.488,6.488,0,0,0-2-5,2.46,2.46,0,0,1,0-4s3.316-2.912-1-5c0,0-2.7-.688-3,1a1.043,1.043,0,0,1-2,0s-1.774-3.467-4,0a1.055,1.055,0,0,1-2,0s-0.439-1.91-3-1c0,0-4.368,1.52-1,5,0,0,2.323,2.03,0,4a5.977,5.977,0,0,0-2,5s-0.495,8.295,8,10a0.947,0.947,0,0,1,1,1s2.308,6.695-9,8A0.584,0.584,0,0,0,70,74Zm11-6s0.784-2.787,7-4a8.355,8.355,0,0,0,4-2s-1.983,9.549-8,10C84,72,80.035,72.573,81,68Zm-4,0s0.963-4.592-10-8a7.107,7.107,0,0,0-1,0s2.116,3.31,2,5c0,0,.346,6.886,8,5A8.4,8.4,0,0,0,77,68Z" transform="translate(-66 -39.469)"/>
</svg>
