<svg xmlns="http://www.w3.org/2000/svg" width="34" height="34" viewBox="0 0 34 34">
  <defs>
    <style>
      .cls-1 {
        fill: #fff;
        fill-rule: evenodd;
      }
    </style>
  </defs>
  <path id="Luno_svg" data-name="Luno svg" class="cls-1" d="M25,42A17,17,0,1,1,42,25,17,17,0,0,1,25,42Zm0-31c-7.135,0-14,6.958-14,14s6.865,14,14,14,14-6.958,14-14S32.136,11,25,11Zm-7,5a13.185,13.185,0,0,1,2,5v8a7.638,7.638,0,0,1-2,4H34s0.428-3.823-3-5a5.427,5.427,0,0,0-4,4s-1.977-.306-2-2V21s0.051-4.329,2-5C27,16,21.443,17.96,18,16Z" transform="translate(-8 -8)"/>
</svg>
