<svg xmlns="http://www.w3.org/2000/svg" width="40.001" height="40.001" viewBox="0 0 24 24">
  <defs>
    <style>
      .cls-1 {
        fill: #fff;
        fill-rule: evenodd;
      }
    </style>
  </defs>
  <path id="quest_svg" data-name="quest svg" class="cls-1" d="M25,28a2,2,0,1,1-2,2A2,2,0,0,1,25,28Zm-1-2s-1.419-5.262,0-8a1.205,1.205,0,0,1,2,0s1.555,3.113,0,8A1.161,1.161,0,0,1,24,26Zm1,11A12,12,0,1,1,37,25,12,12,0,0,1,25,37Zm0-21a9,9,0,1,0,9.12,9A9.061,9.061,0,0,0,25,16Z" transform="translate(-13 -13)"/>
</svg>
