<svg xmlns="http://www.w3.org/2000/svg" width="24" height="24" viewBox="0 0 24 24">
  <defs>
    <style>
      .cls-1 {
        fill: #fff;
        fill-rule: evenodd;
      }
    </style>
  </defs>
  <path id="MSQ_svg_copy" data-name="MSQ svg copy" class="cls-1" d="M13,16a2,2,0,1,1-2,2A2,2,0,0,1,13,16Zm-1-2s-1.419-5.262,0-8a1.205,1.205,0,0,1,2,0s1.555,3.113,0,8A1.161,1.161,0,0,1,12,14Zm1,11A12,12,0,1,1,25,13,12,12,0,0,1,13,25ZM13,4a9,9,0,1,0,9.12,9A9.061,9.061,0,0,0,13,4Z" transform="translate(-1 -1)"/>
</svg>
