<?xml version="1.0" encoding="utf-8"?>
<svg viewBox="0 0 64 64" xmlns="http://www.w3.org/2000/svg">
  <g id="HOUSE-8" data-name="HOUSE">
    <path d="M44.61,26.75H40.73v9.5h3.88Z" style="fill: rgb(255, 255, 255);"/>
    <rect x="40.73" y="37.75" width="3.88" height="9.5" style="fill: rgb(255, 255, 255);"/>
    <rect x="54.06" y="28.75" width="1.45" height="12.5" style="fill: rgb(255, 255, 255);"/>
    <rect x="10.42" y="38.75" width="4.36" height="4.5" style="fill: rgb(255, 255, 255);"/>
    <path d="M23.27,18v9.27l5.61-6a1,1,0,0,1,1.39,0l8.52,9.07V15.26L28.61,5.37l-8.67,8.42C20.19,14.23,23.47,17.46,23.27,18Zm9-2a.74.74,0,0,1,.73-.75h3.88a.74.74,0,0,1,.73.75v4a.74.74,0,0,1-.73.75H33a.74.74,0,0,1-.73-.75Z" style="fill: rgb(255, 255, 255);"/>
    <rect x="33.7" y="16.75" width="2.42" height="2.5" style="fill: rgb(255, 255, 255);"/>
    <path d="M58.18,51V23.34l-5.82-7.71-5.81,7.71V51H44.61V48.75H40.73V51H38.79V33.24l-9.21-9.8-9.22,9.8V51H18.42V32.83c-.15-.62,2.62-3,2.91-3.5V18.38L13.58,9.5,5.82,18.38V51H0v2H64V51ZM52.61,28a.74.74,0,0,1,.72-.75h2.91A.74.74,0,0,1,57,28V42a.74.74,0,0,1-.73.75H53.33a.74.74,0,0,1-.72-.75ZM9,38a.74.74,0,0,1,.73-.75h5.82a.74.74,0,0,1,.72.75v6a.74.74,0,0,1-.72.75H9.7A.74.74,0,0,1,9,44Z" style="fill: rgb(255, 255, 255);"/>
  </g>
</svg>