<svg xmlns="http://www.w3.org/2000/svg" width="31.562" height="40.813" viewBox="0 0 31.562 40.813">
  <defs>
    <style>
      .cls-1 {
        fill: #fff;
        fill-rule: evenodd;
      }
    </style>
  </defs>
  <path id="aficon_svg" data-name="aficon svg" class="cls-1" d="M27,36.5l0.25,4.75a0.691,0.691,0,0,0,.5.75s0.279,0.036,1.75-1.25a1.1,1.1,0,0,1,1-1.25,0.914,0.914,0,0,1,.75,1.25A16.894,16.894,0,0,0,35,44s-0.1-1.259-2-4.25c0,0-1.373.063-1.25-1A1.056,1.056,0,0,1,33,38s3.466-3.2,3-4a1.414,1.414,0,0,0-.25-0.75c-0.243-.311-0.133-0.549.25-1,0,0,.075-0.185,1.25,0A1.435,1.435,0,0,0,38.75,31,2.367,2.367,0,0,1,39,30a1.065,1.065,0,0,0,0-1.5,1.686,1.686,0,0,0-1-.5,1.093,1.093,0,0,1-.75-0.75s-0.205-.837,1-1H38.5s0.056-6.7,2-8.75a1.19,1.19,0,0,0,0-1.25s-0.81-.645-3,0.75a6.683,6.683,0,0,0-2.25.25,8.507,8.507,0,0,1-1.75,1s-0.92.23-1-.5c0,0,.172-2.964-1-3.75a5.332,5.332,0,0,1-1.25-1.75s-0.612-.781.5-2.25c0,0-1.368.049-2.25,2v6a3.837,3.837,0,0,1,1.25,3.5s0.127,0.194,1-.25c0,0,2.761-1.437,3.75-1,0,0,.54.045-0.75,3.25,0,0-.426.161-0.25,2.5v0.5a0.9,0.9,0,0,0-.75.5s-0.125.279,0.5,0.5c0,0,.933.48,0.8,0.9a0.313,0.313,0,0,1-.055.1,2.029,2.029,0,0,0-.5,1,0.844,0.844,0,0,1-.75.75s-0.973-.12-1,0.25c0,0-.292.193,0,0.75,0,0,.38.43-0.75,1.5A1.427,1.427,0,0,0,31,34s-0.3.963-2,.75A3.207,3.207,0,0,0,27,36.5Zm5.5-14S32.269,25.137,29,27C29,27,30.175,23.131,32.5,22.5Zm-9.75,14L22.5,41.25A0.691,0.691,0,0,1,22,42s-0.279.036-1.75-1.25a1.1,1.1,0,0,0-1-1.25,0.914,0.914,0,0,0-.75,1.25A16.894,16.894,0,0,1,14.75,44s0.1-1.259,2-4.25c0,0,1.373.063,1.25-1A1.056,1.056,0,0,0,16.75,38s-3.466-3.2-3-4A1.414,1.414,0,0,1,14,33.25c0.243-.311.133-0.549-0.25-1,0,0-.075-0.185-1.25,0A1.435,1.435,0,0,1,11,31a2.367,2.367,0,0,0-.25-1,1.065,1.065,0,0,1,0-1.5,1.686,1.686,0,0,1,1-.5,1.093,1.093,0,0,0,.75-0.75s0.205-.837-1-1H11.25s-0.056-6.7-2-8.75a1.19,1.19,0,0,1,0-1.25s0.81-.645,3,0.75a6.683,6.683,0,0,1,2.25.25,8.507,8.507,0,0,0,1.75,1s0.92,0.23,1-.5c0,0-.172-2.964,1-3.75a5.332,5.332,0,0,0,1.25-1.75S20.112,11.469,19,10c0,0,1.368.049,2.25,2v6A3.837,3.837,0,0,0,20,21.5s-0.127.194-1-.25c0,0-2.761-1.437-3.75-1,0,0-.54.045,0.75,3.25,0,0,.426.161,0.25,2.5v0.5A0.9,0.9,0,0,1,17,27s0.125,0.279-.5.5c0,0-.933.48-0.8,0.9a0.313,0.313,0,0,0,.055.1,2.029,2.029,0,0,1,.5,1,0.844,0.844,0,0,0,.75.75s0.973-.12,1,0.25c0,0,.292.193,0,0.75,0,0-.38.43,0.75,1.5a1.427,1.427,0,0,1,0,1.25s0.3,0.963,2,.75A3.207,3.207,0,0,1,22.75,36.5Zm-5.5-14s0.231,2.637,3.5,4.5C20.75,27,19.575,23.131,17.25,22.5ZM25,45.5a1.6,1.6,0,0,0,1.25-1.75s0.046-2.085-.25-7.5a2.537,2.537,0,0,1,1.5-2,16.374,16.374,0,0,1,2.5-.5s0.321-1.195-1.25-3.25A7.865,7.865,0,0,1,27,27.75s0.73-17.388.5-17.75A11.361,11.361,0,0,0,25,4.75a0.156,0.156,0,0,0-.25,0S22.123,7.6,22.25,10c0,0-.262,5.956.5,17.75A6.477,6.477,0,0,1,21,30.5s-1.629,1.577-1.25,3.25a26.3,26.3,0,0,1,2.75.5,2.382,2.382,0,0,1,1.25,2s-0.417,6.736-.25,7.5c0,0,.1,1.581,1.25,1.75H25Zm0.5-12.25a2.457,2.457,0,0,1,1.5-1h0.25a6.38,6.38,0,0,1-1.5-3L26,11.5a8.954,8.954,0,0,0-1-3.25,0.148,0.148,0,0,0-.25,0,5.24,5.24,0,0,0-1,3.25C23.713,13.526,24,29.25,24,29.25a5.9,5.9,0,0,1-1.5,3h0.25s1.314,0.271,1.5,1H25.5Z" transform="translate(-9.094 -4.688)"/>
</svg>
