<svg xmlns="http://www.w3.org/2000/svg" width="41" height="36" viewBox="0 0 41 36">
  <defs>
    <style>
      .cls-1 {
        fill: #fff;
        fill-rule: evenodd;
      }
    </style>
  </defs>
  <path class="cls-1" d="M46,16.282V43s-7.612-.433-13-1a40.977,40.977,0,0,1-6-1c1.889,0.132,12.363-.127,16-1l1.861-.485V16.282H46Zm-2.278-4.647V38.353H41.444s-1.44-1-1.139-2.323h2.278v-24.4h1.139ZM5,17.443V43s16.15-.858,19-2L6.139,39.515V17.443H5ZM7.278,12.8V38.353L24,40S13.056,35.985,9.556,36.03H8.417V12.8H7.278Zm19.361,0A54.986,54.986,0,0,1,41.444,6.988v30.2l-6.833-5.808s2.278-5.5,1.139-8.132C35.75,23.252,35.663,17.665,26.639,12.8Zm5.694,18.587,7.972,6.97-1.139,2.323-7.972-8.132A11.115,11.115,0,0,1,25.5,34.868S15.479,34.3,15.25,24.413c0,0,1.072-9.018,10.25-9.293,3.657-.11,8.279,2.617,9.111,9.293A9.91,9.91,0,0,1,32.333,31.383Zm-7.39-13.917A7.535,7.535,0,1,1,17.543,25,7.468,7.468,0,0,1,24.944,17.466ZM33,38a1.7,1.7,0,0,1,2,1l-8,1A35.776,35.776,0,0,1,33,38Zm-6.361-1.97v3.485A13.316,13.316,0,0,1,33,37l-2-2A15.019,15.019,0,0,1,26.639,36.03ZM9.556,8.15V34.868s8.894,1.247,14.806,4.647V36.03s-9.215-1.966-10.25-10.455c0,0-1.657-8.458,10.25-12.778C24.361,12.8,16.261,7.667,9.556,8.15Z" transform="translate(-5 -7)"/>
</svg>
