<svg xmlns="http://www.w3.org/2000/svg" width="44" height="41.969" viewBox="0 0 44 41.969">
  <defs>
    <style>
      .cls-1 {
        fill: #fff;
        fill-rule: evenodd;
      }
    </style>
  </defs>
  <path class="cls-1" d="M26.293,18.728s1.361-1.113,8.921-2.209a1.371,1.371,0,0,1-.743-1.1c-0.13-.4-1.919-0.546-3.345-0.736,0,0,.2-0.712,3.345-1.1a2.13,2.13,0,0,0-1.858-2.209S30.159,9.978,26.293,18.728ZM21.46,13.941a3.692,3.692,0,0,0-.372-2.209c-0.563-.781-3.125,1.746-3.717,3.314a9.954,9.954,0,0,1,2.974,2.209,3.1,3.1,0,0,1,0-.736,1.745,1.745,0,0,0,.372-1.1,1.919,1.919,0,0,0-1.115-1.1S19.706,13.77,21.46,13.941Zm27.506,9.2c-0.959,5.37-9.664,5.523-9.664,5.523a4.938,4.938,0,0,1,1.115,3.314c0.743,5.671-4.832,8.1-4.832,8.1-2,4.987-2.23,4.418-2.23,4.418-0.67-.581-3.717-3.682-3.717-3.682a8.983,8.983,0,0,0-1.858-.368c-0.095,1.5-2.6,3.314-2.6,3.314C22.481,46.342,17,45.974,17,45.974,11.607,45.747,9.566,43.4,9.566,43.4c-5.672-3.467-4.46-8.837-4.46-8.837,0.2-2.608,3.345-4.786,3.345-4.786C7.145,28.139,8.079,27.2,8.079,27.2c0.206-.939,2.23-0.736,2.23-0.736-0.493-.349,0-1.1,0-1.1,0.511-1.785,5.576-2.209,5.576-2.209a5.156,5.156,0,0,1-1.859-4.786c-0.626-4.472,6.691-8.468,6.691-8.468A8.83,8.83,0,0,1,26.293,4a4.821,4.821,0,0,0-1.115,4.786c2.994-1.117,7.434-.368,7.434-0.368,3.482-3.267,5.576-2.577,5.576-2.577A4.135,4.135,0,0,0,36.7,9.891c4.14,2.515,4.089,5.891,4.089,5.891a10.09,10.09,0,0,1-4.46,7.732v1.1a10.639,10.639,0,0,1,10.036-4.786C49.373,20.77,48.967,23.146,48.967,23.146ZM33.355,43.4c0.315-.621,1.115-2.946,1.115-2.946-0.533.4-3.717,0.368-3.717,0.368A6.77,6.77,0,0,0,33.355,43.4Zm0.372-8.468s-2.453,2.542-5.2,2.577v1.1s5.346-1.1,5.947-4.418c0,0,.755-2.435-2.23-3.314a3.359,3.359,0,0,0,1.487-3.314,3.752,3.752,0,0,0-1.487-2.209s-5.051,1.46-6.319,1.1A3.477,3.477,0,0,1,27.036,28.3s0.445,0.447-1.487,2.209c0,0,4.559-3.837,4.461-4.05a2.382,2.382,0,0,1,2.974.368,2.234,2.234,0,0,1,.372,1.841,16.892,16.892,0,0,1-5.947,4.787,2.6,2.6,0,0,1,.372,1.1,10.573,10.573,0,0,0,2.6-2.209s2.032-1.821,3.345.368A2.259,2.259,0,0,1,33.727,34.928ZM9.194,27.564c-1.584.963,0.372,2.209,0.372,2.209,1.382,0.8,1.859,0,1.859,0,0.939-.665-0.372-1.841-0.372-1.841A1.292,1.292,0,0,0,9.194,27.564Zm2.23-2.577a1.629,1.629,0,0,0,0,2.577,1.571,1.571,0,0,1,.743,2.209c-0.926,1.312-2.974.736-2.974,0.736-4.234,2.993-2.6,7-2.6,7,1.976,7.18,11.895,7.364,11.895,7.364,8.905-.841,9.293-7,9.293-7a13.4,13.4,0,0,1-2.23.368c-3.651-.19-3.345-1.1-3.345-1.1-0.419-.677.743-1.1,0.743-1.1,1.477-.3,4.089-1.1,4.089-1.1a1.718,1.718,0,0,0-.372-1.1,36.291,36.291,0,0,1-4.089,1.1,3.391,3.391,0,0,1-2.6-.368,28.27,28.27,0,0,1-5.947,2.209c-6.258,1.311-7.062-2.577-7.062-2.577a2.2,2.2,0,0,0,.372.368,0.359,0.359,0,0,1,.052.05c4.075,3.84,9.24.318,9.24,0.318,3.17-.694,2.974-1.1,2.974-1.1a1,1,0,0,1,.372-0.368,41.783,41.783,0,0,0,4.461-2.209,1.424,1.424,0,0,0,0-.736,6.681,6.681,0,0,0,1.858-1.841,0.806,0.806,0,0,0,0-.736,12.865,12.865,0,0,0-5.576-3.314L19.23,29.405c5.119,0.82,6.691-.736,6.691-0.736C23.637,31.7,17,30.142,17,30.142c-5.713-1.316-5.2-4.05-5.2-4.05,0.97,2.532,5.576,2.945,5.576,2.945l1.487-4.786C12.384,23.741,11.424,24.987,11.424,24.987Zm9.293-2.577V22.041H20.345l-2.23,7v0.368h0.372Zm15.983-1.1a2.6,2.6,0,0,0-1.858-1.1A7.383,7.383,0,0,0,39.3,15.782,4.2,4.2,0,0,0,37.816,12.1c-2.354-2.638-6.691-2.209-6.691-2.209-3.69.089-7.806,3.314-7.806,3.314l0.372-1.473C24.813,8.2,20.717,11,20.717,11c-6.067,2.916-5.576,7.732-5.576,7.732,0.6,4.089,3.345,4.787,3.345,4.787,0.737,0.2.743-.368,0.743-0.368a0.959,0.959,0,0,0,0-1.1c-1.263-3.2-1.115-4.05-1.115-4.05,1.336,3.154,2.23,3.314,2.23,3.314,5.139-1.119,7.434-.368,7.434-0.368a23.045,23.045,0,0,0-5.947.736c0.067,0.21-.372.368-0.372,0.368-0.506.081-.743,1.841-0.743,1.841,0.96-.066,4.089,1.473,4.089,1.473,4.781,0.745,9.664-1.841,9.664-1.841C37.2,22.484,36.7,21.305,36.7,21.305Zm10.408,0.736A7.8,7.8,0,0,0,36.7,25.355a11.579,11.579,0,0,0,1.859,2.577C49.013,27.314,47.108,22.041,47.108,22.041ZM14,32.719a1.445,1.445,0,0,1-1.464,1.473,1.582,1.582,0,0,1-1.464-1.473,1.485,1.485,0,0,1,1.464-1.473A1.4,1.4,0,0,1,14,32.719Zm2.253,4.05a2.37,2.37,0,0,1,2.23,2.209,2.481,2.481,0,0,1-2.23,2.209s-2.305-.371-2.23-2.209A2.216,2.216,0,0,1,16.256,36.769Zm4.461,2.209A1.69,1.69,0,0,1,22.2,40.451s-0.222,1.659-1.475,1.473a1.256,1.256,0,0,1-1.475-1.473A1.527,1.527,0,0,1,20.717,38.978Zm10.036-12.15a1.562,1.562,0,0,1,1.859,1.1s0.685,2.307-7.063,5.155a8.3,8.3,0,0,1-5.2,1.1s-0.111-.159.372-0.736C20.717,33.455,24.8,32.912,30.753,26.828Zm1.115,5.523a2.023,2.023,0,0,1,1.859,1.473s0.3,0.894-2.974,2.209a14.177,14.177,0,0,1-5.576,1.473s-1.651.244-2.23-.368c0,0-.379-0.125,0-0.368,0,0,.13-0.3,4.089-1.1h0a11.213,11.213,0,0,0,3.717-2.577A2.23,2.23,0,0,1,31.868,32.351ZM16.256,37.133a1.85,1.85,0,1,1-1.867,1.849A1.858,1.858,0,0,1,16.256,37.133Zm4.461,2.213a1.2,1.2,0,0,1,1.115,1.1,1.115,1.115,0,0,1-2.23,0A1.174,1.174,0,0,1,20.717,39.346Zm-8.182-7.722a1.1,1.1,0,1,1-1.118,1.1A1.11,1.11,0,0,1,12.535,31.624Zm26.024,7.713a1.482,1.482,0,1,1-1.5,1.482A1.491,1.491,0,0,1,38.559,39.337Zm-0.743,1.114,1.858,0.368c-0.038-.067-1.213-1.676-1.858-0.368m1.858,0.368a0.8,0.8,0,0,1-.743.736,2.676,2.676,0,0,0-.372-0.736h1.115Zm-1.858-.368,1.115,1.473a1.492,1.492,0,0,1-1.115-.368A0.862,0.862,0,0,1,37.816,40.451ZM9.195,12.106a1.469,1.469,0,1,1-1.486,1.469A1.478,1.478,0,0,1,9.195,12.106Zm0,0.367a1.1,1.1,0,1,1-1.118,1.1A1.11,1.11,0,0,1,9.195,12.474Zm1.486,4.407a1.1,1.1,0,1,1-1.1,1.1A1.1,1.1,0,0,1,10.681,16.881Zm0,0.367a0.735,0.735,0,1,1-.736.735A0.735,0.735,0,0,1,10.681,17.248Z" transform="translate(-5 -4)"/>
</svg>
