<svg xmlns="http://www.w3.org/2000/svg" width="35.625" height="34" viewBox="0 0 35.625 34">
  <defs>
    <style>
      .cls-1 {
        fill: #fff;
        fill-rule: evenodd;
      }
    </style>
  </defs>
  <path id="Shape_1_copy" data-name="Shape 1 copy" class="cls-1" d="M25,28a2,2,0,1,1-2,2A2,2,0,0,1,25,28Zm-1-2s-1.419-5.262,0-8a1.205,1.205,0,0,1,2,0s1.555,3.113,0,8A1.161,1.161,0,0,1,24,26Zm1,11A12,12,0,1,1,37,25,12,12,0,0,1,25,37Zm0-21a9,9,0,1,0,9.12,9A9.061,9.061,0,0,0,25,16Zm9-3s14.835,11.125-1,25l9,4-5-5s13.061-11.561,0-24l5-5-9,4ZM16,13S1.165,24.125,17,38L8,42l5-5S-0.061,25.439,13,13L8,8l9,4Z" transform="translate(-7.188 -8)"/>
</svg>
