<svg xmlns="http://www.w3.org/2000/svg" width="37" height="32.531" viewBox="0 0 37 32.531">
  <defs>
    <style>
      .cls-1 {
        fill: #fff;
        fill-rule: evenodd;
      }
    </style>
  </defs>
  <path class="cls-1" d="M25,41s1.043-2.524,9-7c1.965-1.105,5.924-3.6,7-6,0,0,1.607-3.5,1-5,0,0-.469-2.048,1-3l1-1a4.066,4.066,0,0,0-4,2,5.442,5.442,0,0,1-2,3,1.718,1.718,0,0,0-1,1s-2.451,1.292-2-2c0,0,.062-1.3,3-3,0,0,3.922-1.307,1-4,0,0-1.212-.614-1-3,0,0,.313-3.436,3-4,0,0-2.575-1.536-5,3,0,0-1.436,2.961,0,4,0,0,.922,1.844-1,2a2.792,2.792,0,0,0-2,3s-3.168-.475-3-3c0,0,.8-4.3,4-5,0,0-5.347-.282-8,4,0,0-.359.259-1,3,0,0-.413.888-1,0,0.169-.131-1.659-7.655-9-7a10.859,10.859,0,0,0-6,3c-1.621,1.8-2.063,4.657-2,9a10.611,10.611,0,0,0,2,5,14.438,14.438,0,0,0,5,4c8.889,4.5,10,7,10,7A0.6,0.6,0,0,0,25,41ZM13.5,17A3.5,3.5,0,1,1,10,20.5,3.5,3.5,0,0,1,13.5,17Z" transform="translate(-7 -8.75)"/>
</svg>
