<svg xmlns="http://www.w3.org/2000/svg" width="31.75" height="41.438" viewBox="0 0 31.75 41.438">
  <defs>
    <style>
      .cls-1 {
        fill: #fff;
        fill-rule: evenodd;
      }
    </style>
  </defs>
  <path id="scicon_svg" data-name="scicon svg" class="cls-1" d="M27.25,32v3A1.207,1.207,0,0,0,28,34.25a1.209,1.209,0,0,1,1-.5s4.7-1,6.5-4a11.09,11.09,0,0,0,2.25-5.25s0.236-2.082.25-2.5a2.477,2.477,0,0,1,.75-2s0.584-.628,1-1a4.718,4.718,0,0,0-3.5,1.5A2.4,2.4,0,0,0,36,21.75s0.044,3.217-.5,3.75A9.4,9.4,0,0,1,33,28.75s-0.791,1.084-3.5,2C29.5,30.75,27.63,31.2,27.25,32ZM22.5,32v3a1.207,1.207,0,0,1-.75-0.75,1.209,1.209,0,0,0-1-.5s-4.7-1-6.5-4A11.09,11.09,0,0,1,12,24.5s-0.236-2.082-.25-2.5A2.477,2.477,0,0,0,11,20s-0.584-.628-1-1a4.718,4.718,0,0,1,3.5,1.5,2.4,2.4,0,0,1,.25,1.25s-0.044,3.217.5,3.75a9.4,9.4,0,0,0,2.5,3.25s0.791,1.084,3.5,2C20.25,30.75,22.12,31.2,22.5,32Zm2.375-15.5A2.253,2.253,0,1,1,22.5,18.75,2.315,2.315,0,0,1,24.875,16.5Zm0,6.75a4.5,4.5,0,1,1,4.625-4.5A4.564,4.564,0,0,1,24.875,23.25Zm0-7.75a3.252,3.252,0,1,0,3.375,3.25A3.314,3.314,0,0,0,24.875,15.5ZM25,13.25a8.088,8.088,0,0,1,5,1.5,7.762,7.762,0,0,0,3.75,1.5,12.569,12.569,0,0,1-3-2.75,9.8,9.8,0,0,0-4-2.25,0.7,0.7,0,0,0-.5.25s-0.035.175-.25,0a0.879,0.879,0,0,1-.5-0.5V10.5s0.363-.223.5,0a1.657,1.657,0,0,0,1.25,0l1-.5-1-.5A1.085,1.085,0,0,0,26,9.5s-0.39.188-.5,0l-0.25-.25s0.161-.282.5-0.75a17.09,17.09,0,0,0-.75-4s-0.076-.408-0.25,0a21.6,21.6,0,0,0-.75,4l0.5,0.75-0.25.25a0.336,0.336,0,0,1-.5,0,0.848,0.848,0,0,0-1.25,0l-1,.5,1,0.5a1.319,1.319,0,0,0,1.25,0,0.421,0.421,0,0,1,.5,0V11a1.313,1.313,0,0,1-.5.5,0.173,0.173,0,0,1-.25,0,0.627,0.627,0,0,0-.5-0.25,8.077,8.077,0,0,0-3.75,2.25s-2.366,2.306-3.5,2.5c0,0,1.063.64,4.25-1.25A9.3,9.3,0,0,1,25,13.25ZM25,45.5s0.436-2.581.75-2.75a1.622,1.622,0,0,1-.5-0.75,0.758,0.758,0,0,1,.25-0.5,0.455,0.455,0,0,1,.5.25s0.355,0.543,2.25-.25c0,0,.294-0.1,0-0.25,0,0-1.813-1.31-2.25-.75,0,0-.433.275-0.5,0a0.77,0.77,0,0,1-.25-0.75,0.822,0.822,0,0,1,.5-0.5,0.8,0.8,0,0,1,.5.25s0.548,0.557,2.5-.5c0,0,.145-0.166,0-0.25,0,0-2.128-1.25-2.5-.5a0.422,0.422,0,0,1-.5,0,0.375,0.375,0,0,1-.25-0.5,0.779,0.779,0,0,1,.75-0.5,21.234,21.234,0,0,1-.25-3.5s-0.1-2.179.5-2.75a0.749,0.749,0,0,0,0-.75,0.786,0.786,0,0,1-.25-1,0.475,0.475,0,0,1,.75,0A1.03,1.03,0,0,0,28.25,29a4.135,4.135,0,0,1,2.25-.25s-1.447-1.2-2.25-1.75a0.563,0.563,0,0,0-.5,0,0.657,0.657,0,0,1-1,0s-0.514-.783,1-0.75c0,0,1.993-2.657,4.75-3,0,0,.239-0.348-0.25-1.75a2.843,2.843,0,0,1,.25-1.75h0A2.672,2.672,0,0,1,35,19s0.49,0.358.75,0c0,0,.278-0.557,2-0.75l3-.5-4.5-.5a1.279,1.279,0,0,1-.75-0.75,1.455,1.455,0,0,1-.75.75S30.934,16.8,30,16a29.338,29.338,0,0,1,.5,3s-0.214,2.266.25,2.5c0,0,.25.336-0.25,0.5a1.3,1.3,0,0,0-1.25.5s-2.7,2.327-3.75,2.5a2.373,2.373,0,0,1,0,1,4.4,4.4,0,0,1-.5.75,0.159,0.159,0,0,1-.25,0,3.205,3.205,0,0,1-.5-0.75,1.828,1.828,0,0,1,0-1s-3.443-1.781-3.75-2.75c0,0-.16-0.334-1.25-0.25,0,0-.541-0.246,0-0.75,0,0,.181-0.1,0-2.25a17.635,17.635,0,0,1,.5-3,19.42,19.42,0,0,1-4.5,1.25,2.321,2.321,0,0,1-1-.75,1.582,1.582,0,0,1-.75.75l-4.5.5,3.25,0.5A2.989,2.989,0,0,1,14,19a0.584,0.584,0,0,0,.75,0s0.789-.716,2.5.75c0,0,.583.593,0,2.75,0,0-.085.7,0.25,0.75a7.738,7.738,0,0,1,4.75,3.25A0.571,0.571,0,0,1,23,27a0.562,0.562,0,0,1-1,0,0.431,0.431,0,0,0-.5,0l-2.25,1.75s1.941-.154,2.25.25a0.918,0.918,0,0,0,1.25.25,0.589,0.589,0,0,1,.75,0,0.761,0.761,0,0,1-.25,1,0.583,0.583,0,0,0,0,.75,3.913,3.913,0,0,1,.5,2.75,34.024,34.024,0,0,1-.25,3.5,0.677,0.677,0,0,1,.75.5c0.047,0.543-.25.5-0.25,0.5a0.441,0.441,0,0,1-.5,0s-0.529-.822-2.5.5c0,0-.449.141,0,0.25,0,0,1.943,1.158,2.5.5a0.506,0.506,0,0,1,.5-0.25,0.548,0.548,0,0,1,.5.5,1.049,1.049,0,0,1-.25.75s-0.044.227-.5,0c0,0-.685-0.558-2.25.75,0,0-.322.153,0,0.25,0,0,1.633.777,2.25,0.25a0.452,0.452,0,0,1,.5-0.25,0.381,0.381,0,0,1,.25.5,1.155,1.155,0,0,1-.5.75,5.723,5.723,0,0,1,.75,2.75S24.879,46.063,25,45.5Z" transform="translate(-9 -4.313)"/>
</svg>
