<svg xmlns="http://www.w3.org/2000/svg" width="38.969" height="36.969" viewBox="0 0 38.969 36.969">
  <defs>
    <style>
      .cls-1 {
        fill: #fff;
        fill-rule: evenodd;
      }
    </style>
  </defs>
  <path class="cls-1" d="M25.552,7A13.708,13.708,0,1,1,11.984,20.708,13.638,13.638,0,0,1,25.552,7ZM23,9s5.948,3.349,7.848,5.139a10.81,10.81,0,0,1-8.255,0h0s2.054,1.814,2.359,5.963v1.192s-8.881-.486-10.614-3.578C14.337,17.716,15.078,11.608,23,9Zm12,5s4.094,7.47-.614,14.449a11.119,11.119,0,0,1-9.435,3.578s-5.945-.273-8.255-4.77c0,0-.342-1.639,2.359-2.385a10.393,10.393,0,0,0,3.538,4.77s4.044-3.889,3.538-7.155c0,0,2.424.536,3.538,5.963,0,0,4.673-8.808,4.717-14.311,0,0,.012-0.538,0-1.193C34.38,12.6,34.668,13.154,35,14ZM13.158,30.834s-3.043,1.746-3.538,3.578c0,0-.626,5.456,15.331,4.77H27.31s15.823-.193,14.152-4.77c-1.194-3.27-3.538-3.578-3.538-3.578S44.664,32.466,45,37.99c0,0,.238,5.875-17.69,5.963,0,0-20.5.895-21.228-5.963C6.082,37.99,4.848,34.473,13.158,30.834Z" transform="translate(-6.031 -7)"/>
</svg>
