<svg xmlns="http://www.w3.org/2000/svg" width="39.667" height="38.729" viewBox="0 0 67.438 65.844">
  <defs>
    <style>
      .cls-1 {
        fill: #343330;
        fill-rule: evenodd;
      }
    </style>
  </defs>
  <path id="Color_Fill_1" data-name="Color Fill 1" class="cls-1" d="M46.418,18.129c4.44-.023,9.47-0.328,12.551,1,4.344,1.867,6.382,5.83,8.865,9.563L79.289,45.92c2.3,3.462,4.245,5.653,5.18,10.459,0.791,4.068-1.719,6.877-3.188,8.865l-6.375,8.268c-3.209,4.253-4.865,7.942-10.658,9.662-2.647.786-6.512,0.643-9.862,0.578-5-.1-11.8.743-15.837-0.479-7.1-2.145-10.487-8.279-14.443-13.646-2.27-3.079-7.89-7.682-6.773-13.646,1.023-5.468,4.8-9.142,7.471-13.148L34.664,27.99c1.522-2.282,2.843-5.111,4.98-6.773a17.091,17.091,0,0,1,4.084-2.391Z" transform="translate(-17.188 -18.094)"/>
</svg>
