<svg xmlns="http://www.w3.org/2000/svg" width="40.289" height="42.136" viewBox="0 0 65.469 68.469">
  <defs>
    <style>
      .cls-1 {
        fill: #343330;
        fill-rule: evenodd;
      }
    </style>
  </defs>
  <path id="Color_Fill_1" data-name="Color Fill 1" class="cls-1" d="M49.506,17.232c7.129-.156,9.937,3.021,14.145,5.678L77.7,31.975c2.321,1.464,7.095,4.362,6.275,8.666-1.241,6.52-9.044,6.816-12.252,10.957v0.2c4.2,2.591,11.222,5.794,12.252,11.355,0.815,4.4-3.488,6.253-5.777,7.77L60.264,82.477C58,83.9,54.959,86.307,50.7,85.565c-5.288-.923-8.1-3.61-11.853-5.977L24.8,70.523c-2.464-1.554-7.05-3.814-6.076-8.566,0.953-4.651,6.3-6.885,9.762-9.064,0.923-.581,2.026-0.955,2.59-1.893-2.935-3.488-10.045-4.71-11.953-9.463-2.075-5.168,2.4-7.814,5.18-9.563L45.82,18.129Z" transform="translate(-18.594 -17.219)"/>
</svg>
