<svg xmlns="http://www.w3.org/2000/svg" width="23" height="23" viewBox="0 0 23 23">
  <defs>
    <style>
      .cls-1 {
        fill: #fff;
        fill-rule: evenodd;
      }
    </style>
  </defs>
  <path id="dungeon" class="cls-1" d="M21,15s0.332-.937-1-1-1,1-1,1H15s-1.949-.159-2,1V35a1.729,1.729,0,0,0,2,2H34a1.888,1.888,0,0,0,2-2V16s0.006-1.12-2-1H30a1,1,0,0,0-2,0v2a0.917,0.917,0,0,0,1,1,0.993,0.993,0,0,0,1-1h3a1.065,1.065,0,0,1,1,1V34a0.942,0.942,0,0,1-1,1H16s-0.969.347-1-1V18a0.984,0.984,0,0,1,1-1h3a1.03,1.03,0,0,0,1,1,0.991,0.991,0,0,0,1-1V15Zm-2,5V33h7s3.947-.472,4-6c0,0,.489-6.743-5-7H19Zm2,2v9h4s2.981-1.478,3-4V26s-0.262-3.166-3-4H21Z" transform="translate(-13 -14)"/>
</svg>
