<svg xmlns="http://www.w3.org/2000/svg" width="23" height="23" viewBox="0 0 23 23">
  <defs>
    <style>
      .cls-1 {
        fill: #fff;
        fill-rule: evenodd;
      }
    </style>
  </defs>
  <path class="cls-1" d="M21,15s0.332-.937-1-1-1,1-1,1H15s-1.949-.159-2,1V35a1.729,1.729,0,0,0,2,2H34a1.888,1.888,0,0,0,2-2V16s0.006-1.12-2-1H30a1,1,0,0,0-2,0v2a0.917,0.917,0,0,0,1,1,0.993,0.993,0,0,0,1-1h3a1.065,1.065,0,0,1,1,1V34a0.942,0.942,0,0,1-1,1H16s-0.969.347-1-1V18a0.984,0.984,0,0,1,1-1h3a1.03,1.03,0,0,0,1,1,0.991,0.991,0,0,0,1-1V15Zm-2,4V33h2V28h3l3,5h3l-3-5s1.988-2.108,2-4V23s0.064-3.5-4-4H19Zm2,3a1.989,1.989,0,0,1,2-1h1a2.08,2.08,0,0,1,2,1,2.434,2.434,0,0,1,0,3,2.143,2.143,0,0,1-2,1H22a1.41,1.41,0,0,1-1-1A7.313,7.313,0,0,1,21,22Z" transform="translate(-13 -14)"/>
</svg>
