<svg xmlns="http://www.w3.org/2000/svg" width="40.031" height="40" viewBox="0 0 38.031 38.001">
  <defs>
    <style>
      .cls-1 {
        fill: #fec7d0;
        fill-rule: evenodd;
      }
    </style>
  </defs>
  <path id="shell_svg" data-name="shell svg" class="cls-1" d="M74,63s-1.036,3.52,1,5c0,0,5.969,4.4,14,0,0,0,2.009-1.231,1-5,0,0,8.968-3.564,11-10,0,0,.635-5.766-6-5,0,0-2.759-7.038-7-4,0,0-5.5-8.288-12,0,0,0-4.532-3.25-7,4,0,0-6.365-1.795-6,5C63,53,62.6,57.338,74,63Zm5-15a1.691,1.691,0,0,0-2-1,1.537,1.537,0,0,0-1,2l5,13Zm-7,3a1.881,1.881,0,0,0-2,0,1.662,1.662,0,0,0,0,2l10,9Zm16-2a1.528,1.528,0,0,0-1-2,1.712,1.712,0,0,0-2,1c-0.572,1.368-2,14-2,14Zm6,4a1.436,1.436,0,0,0,0-2,1.388,1.388,0,0,0-2,0L85,62Z" transform="translate(-63 -36.14)"/>
</svg>
