<svg xmlns="http://www.w3.org/2000/svg" width="32.031" height="37.031" viewBox="0 0 32.031 37.031">
  <defs>
    <style>
      .cls-1 {
        fill: #fff;
        fill-rule: evenodd;
      }
    </style>
  </defs>
  <path class="cls-1" d="M35.743,35.146a13.74,13.74,0,0,0-4.5-7.164C38.626,23.521,41,26.892,41,26.892,41.5,30.953,35.743,35.146,35.743,35.146ZM33.869,18.267a0.545,0.545,0,0,1-.292.444,2.713,2.713,0,0,0-.731.444c-0.549.4-.1,0.428-0.292,0.888a3.773,3.773,0,0,0-.292.74,1.965,1.965,0,0,0,0,.592c-0.021.191,0,.74,0,0.74a3.648,3.648,0,0,1-.146.74,0.853,0.853,0,0,1-.438.444,1.308,1.308,0,0,0-.438-0.148,1.1,1.1,0,0,1-.731-0.444,2.729,2.729,0,0,1-.438-0.592,1.122,1.122,0,0,0-.378-0.652,0.735,0.735,0,0,1-.5-0.68c-0.069-.294-0.1-0.192-0.438-0.444a2.781,2.781,0,0,0-.584-0.592,1.631,1.631,0,0,1-.584-0.444,1.88,1.88,0,0,0-.292-0.592,1.989,1.989,0,0,0-.731-0.592c-0.48-.367-0.146-0.444-0.146-0.444l-0.146-.444V16.639l0.146-.444L27,15.6s0.175-.384.292-0.74l0.584-.444,0.438,0.3h0.438a1.524,1.524,0,0,0,.584.3,4.047,4.047,0,0,1,.731.148l0.585,0.148h0.438l0.584,0.148,0.438-.3,0.877,0.3L33.577,15.6l0.146,0.3a1.475,1.475,0,0,1,.292.592,1.5,1.5,0,0,1,0,.888A3.973,3.973,0,0,1,33.869,18.267Zm-1.023-4.294-0.877.148-0.584-.148-0.438-.148-0.584-.3-0.292-.148a2.253,2.253,0,0,1-.584.148c-0.218,0-.438,0-0.438,0l-0.584.3-0.438.148-0.731.3H27l-0.731-.148-0.146-.74a4.73,4.73,0,0,1,.146-0.888,1.471,1.471,0,0,0,.146-0.592,2.01,2.01,0,0,0,0-.592,1.569,1.569,0,0,0-.146-0.444l-0.438-.444-0.731.148-0.146.3v1.481l0.146,0.3a4.07,4.07,0,0,0,0,.74,3.13,3.13,0,0,1,0,.74,1.528,1.528,0,0,1-.146.592l-0.146.3-0.73.148-0.292-.74-0.438-.592-0.292-.3H22.034s0,0.055-.292,0a1.593,1.593,0,0,1-.584-0.3l-0.292-.3-0.292-.3L20.28,12.2l-0.146-.444-0.146-.592a1.3,1.3,0,0,0,.731-0.3c0.382-.3.61-0.235,0.877-0.444a1.624,1.624,0,0,0,.731-0.444,1.132,1.132,0,0,1,.292-0.592,1.113,1.113,0,0,0,.292-0.444s0.286-.261.585-0.592a1.408,1.408,0,0,1,.584-0.592,1.71,1.71,0,0,1,.584-0.444,3.563,3.563,0,0,0,.877-0.3l0.438,0.3,0.585,0.3,0.584,0.444a1.542,1.542,0,0,1,.438.444,1.375,1.375,0,0,0,.584.444l0.292,0.148a1.54,1.54,0,0,1,.438.3,1.539,1.539,0,0,0,.438.3l0.146,0.444,0.584,0.444a0.494,0.494,0,0,1,.585,0,3.153,3.153,0,0,1,.877.592,1.639,1.639,0,0,0,0,.592,1.746,1.746,0,0,0,.584.3c0.284,0.061,1.169.148,1.169,0.148s0.182-.269.292,0.148a1.527,1.527,0,0,0,.146.444l-0.146.74Zm-12.566-.3c0.293,0.093.731,0.3,0.731,0.3L21.3,14.566l-0.438.444-0.292.3-0.438.148-0.584.3L19.4,15.9l-0.292.444a0.237,0.237,0,0,0,.146.3,4.171,4.171,0,0,0,1.169.148,3.11,3.11,0,0,1,.731-0.148c0.236,0.039.58-.039,0.877,0s0.637,0.377.877,0a0.913,0.913,0,0,1,.438-0.592,2.664,2.664,0,0,0,.731-0.74l0.438,0.3,0.292,0.592,0.146,0.592,0.146,0.74v0.74s-0.1.342-.146,0.592a1.83,1.83,0,0,1,0,.592,4.966,4.966,0,0,1-.292.888l-0.146.444-0.292.74-0.292.444-0.438.74-0.146.74-0.585.592a2.274,2.274,0,0,0-1.023.148c-0.348.2-1.169,0.592-1.169,0.592l-0.877.3-0.585.148L18.673,24.19l-0.292-.3V22.857l-0.146-.592-0.438-.74s-0.055.1-.146-0.3a6.813,6.813,0,0,0-.292-0.888V19.6l-0.438-.888-0.146-.444-0.292-.444-0.292-.444a2.46,2.46,0,0,1-.146-0.74c0.023-.258-0.023-0.333,0-0.74a1.227,1.227,0,0,1,.438-0.74,2.389,2.389,0,0,0,.438-0.148,2.921,2.921,0,0,1,.731-0.148h0.292l0.292-.148-0.292-.592-0.438-.3-0.146-.888,0.292-.444,0.584-.148L19.4,12.937l0.584,0.3A0.475,0.475,0,0,0,20.28,13.678ZM13.559,30.852c-3.935,4.535-4.091,7.4-4.091,7.4l-0.292-.592C7.828,28.212,14.29,24.338,14.29,24.338l3.069,2.517Zm6.283-4.738,0.438-.592s0.421,0.244.584,0a0.556,0.556,0,0,1,.585-0.3l0.584-.3h0.877c0.079-.467.809,0.068,0.877,0.3a1.962,1.962,0,0,1,0,.74,0.9,0.9,0,0,1,.585.444,0.633,0.633,0,0,1-.146.74s-0.11.56-.146,0.74-0.146.592-.146,0.592-0.433,1.007-.584,1.332a0.929,0.929,0,0,1-.438.444l-0.292.444-0.585-.74-0.292-.592-0.292-.444V28.483a2.734,2.734,0,0,0-.585-0.888,1.162,1.162,0,0,0-.731-0.444C19.753,27.006,19.842,27,19.842,27a1.291,1.291,0,0,1-.292-0.592A0.278,0.278,0,0,1,19.842,26.114Zm5.406-5.33a7.149,7.149,0,0,1,1.169-.74l0.438-.74a4.511,4.511,0,0,0,.585,1.036,4.558,4.558,0,0,1,.584.888,1.607,1.607,0,0,0,.584.592,5.682,5.682,0,0,0,.584.3,1.665,1.665,0,0,0,.438.74,3.623,3.623,0,0,0,.731.444l0.146,0.74,0.292,0.3s0.391,0.3.146,0.592a1.507,1.507,0,0,0-.292.444l-0.292.444v0.444l-0.438.444-0.438.444-0.292.3-0.292.444-0.146.444-0.146.444a1.56,1.56,0,0,1-.584.74,2.114,2.114,0,0,0-.584.3,0.421,0.421,0,0,0-.292.3A2.909,2.909,0,0,0,27,30.7a0.575,0.575,0,0,1-.292.444c-0.234.178-.877,0.592-0.877,0.592a0.965,0.965,0,0,1-.584.148,3.76,3.76,0,0,1-.731-0.148l-0.438-.148-0.438-.444,0.146-.592s-0.065,0,0-.3,0.146-.592.146-0.592l0.438-.74,0.292-.592a1.128,1.128,0,0,0,.292-0.444c0.067-.239.146-0.592,0.146-0.592a1.833,1.833,0,0,0,0-.444,2.37,2.37,0,0,1-.146-0.74c0.067-.361-0.242-0.2-0.292-0.74s-0.48-.423-0.584-0.74c-0.138-.419-0.54-1.532.056-1.505a0.415,0.415,0,0,1,.193.041c0,0.074.06,0.037,0,0a0.432,0.432,0,0,1,.043-0.164c0.155-.366-0.214-0.048.146-0.592s0.37-.372.584-0.74S24.917,21.094,25.248,20.784ZM14.2,30.695a1.271,1.271,0,0,1,1.592,0l8.442,5.087,7.508-5.1a0.988,0.988,0,0,1,1.351,0l0.75,0.975a0.869,0.869,0,0,1,0,.975L26.575,37.19l8.673,5.226c0.27,0.832-.177.849-0.177,0.849l-0.531.34c-0.107.675-1.061,0.34-1.061,0.34l-9.369-5.21-7.373,4.621s-0.81.321-.9-0.325l-0.45-.325s-0.38-.017-0.15-0.812l6.553-4.45-8.47-4.71c-0.445-.323,0-1.019,0-1.019Z" transform="translate(-9 -7)"/>
</svg>
