<?xml version="1.0" encoding="UTF-8" standalone="no"?> <svg xmlns="http://www.w3.org/2000/svg" viewBox="0 0 37.58 47.92"><defs><style>.cls-1{fill:none;stroke:#ffffff;stroke-linecap:round;stroke-linejoin:round;stroke-width:2px;}</style></defs><title>Asset 2</title><g id="Layer_2" data-name="Layer 2"><g id="Layer_2-2" data-name="Layer 2"><polyline class="cls-1" points="7.75 34.92 7.75 46.92 30.75 46.92 30.75 33.92"/><polyline class="cls-1" points="11.75 15.92 11.75 17.23 9.65 25.59"/><path class="cls-1" d="M24.06,8.53a7.48,7.48,0,0,0-11.34,2.11"/><path class="cls-1" d="M27.92,21.7l-1.17-4.47v-2.8a7.88,7.88,0,0,0-.15-1.54"/><polygon class="cls-1" points="5.78 36.47 1.93 31.47 13.6 22.47 16.42 26.14 5.78 36.47"/><line class="cls-1" x1="13.81" y1="22.57" x2="18.48" y2="18.97"/><polygon class="cls-1" points="1 5.78 6 1.93 15 13.6 11.33 16.42 1 5.78"/><line class="cls-1" x1="14.9" y1="13.81" x2="18.5" y2="18.48"/><polygon class="cls-1" points="31.68 1 35.54 6 23.87 15 21.04 11.33 31.68 1"/><line class="cls-1" x1="23.66" y1="14.9" x2="18.99" y2="18.5"/><polygon class="cls-1" points="36.58 30.85 31.57 34.7 22.58 23.04 26.24 20.21 36.58 30.85"/><line class="cls-1" x1="22.68" y1="22.83" x2="19.08" y2="18.16"/><circle class="cls-1" cx="19.09" cy="18.6" r="2.17"/><line class="cls-1" x1="10.75" y1="38.92" x2="21.75" y2="38.92"/><line class="cls-1" x1="14.75" y1="41.92" x2="14.75" y2="38.92"/><line class="cls-1" x1="10.75" y1="42.92" x2="17.75" y2="42.92"/><line class="cls-1" x1="19.75" y1="32.92" x2="26.75" y2="32.92"/><line class="cls-1" x1="22.75" y1="29.92" x2="22.75" y2="32.92"/></g></g></svg>