<svg xmlns="http://www.w3.org/2000/svg" width="36.75" height="40.5" viewBox="0 0 36.75 40.5">
  <defs>
    <style>
      .cls-1 {
        fill: #fff;
        fill-rule: evenodd;
      }
    </style>
  </defs>
  <path id="hsicon_svg" data-name="hsicon svg" class="cls-1" d="M39.75,11c1.8,6.04.75,9.25,0.75,9.25a3.311,3.311,0,0,0,1,2.5c0.311,0.18,0,.5,0,0.5L37,27c-4.646,3.538-7,3.75-7,3.75-3.037.849-2.75,1-2.75,1-1.653.535-1.25,3-1.25,3h1.5c0.124-2.414.75-2.5,0.75-2.5,0.575,0.106.75,2,.75,2A15.648,15.648,0,0,0,37.75,29C36.291,32.974,29,35.5,29,35.5a3.922,3.922,0,0,1-.5,2.25c-0.151.252-.25,0-0.25,0a9.2,9.2,0,0,1-.75-2C25.916,35.72,26,36,26,36c0.47,3.681,2.25,4.75,2.25,4.75a3.5,3.5,0,0,1-2.5,1v0.5a0.528,0.528,0,0,1,.5.25C26.328,43.552,25,45.25,25,45.25c-1.574-2.376-1.25-2.75-1.25-2.75-0.106-.241.5-0.25,0.5-0.25v-0.5a3.188,3.188,0,0,1-2.5-1C23.248,40.144,24,36,24,36c-0.092-.335-1.75-0.25-1.75-0.25a4.4,4.4,0,0,1-.5,2c-0.154.266-.25,0-0.25,0A6.459,6.459,0,0,1,21,35.5c-6.14-1.221-9-6.75-9-6.75,4.793,5.206,9,5.5,9,5.5,0.227-2.046.75-1.75,0.75-1.75,0.615,0.186.5,2.25,0.5,2.25H24V34.5c0.157-2.467-1.5-3-1.5-3-5.868-1.276-8-3.5-8-3.5a57.244,57.244,0,0,1-6-4.75c-0.424-.28,0-0.75,0-0.75a2.183,2.183,0,0,0,1-1.75A19.015,19.015,0,0,1,10.5,10c-0.04-2.461-4-4.5-4-4.5a14.872,14.872,0,0,0,2.25.25,4.4,4.4,0,0,1,2.25.5c2.775,1.456,4.25,1,4.25,1a0.537,0.537,0,0,1,.152.009q-0.459.464-.872,0.971l-0.03.02h0.014A13.5,13.5,0,1,0,34.561,7.219a0.5,0.5,0,0,1,.189.031A5.764,5.764,0,0,0,39,6.5a6.905,6.905,0,0,1,2.5-.75,5.546,5.546,0,0,1,1.75,0C38.309,7.965,39.75,11,39.75,11ZM25,28.25A11.75,11.75,0,1,1,36.75,16.5,11.75,11.75,0,0,1,25,28.25ZM25,7.5a8.876,8.876,0,1,0,8.75,8.875A8.813,8.813,0,0,0,25,7.5ZM33.25,19A2.287,2.287,0,0,0,34,21.25s0.463,0.521-.25.5c0,0-1.916-.212-2.5.5ZM27.5,8a2.6,2.6,0,0,1-2.25-1.75s-0.262-.523-0.5,0c0,0-1.143,2.065-2.25,1.75h5Zm-11,10.75a2.106,2.106,0,0,1-.5,2.5s-0.681.567,0.25,0.5c0,0,1.831-.11,2.5.75ZM25,24a7.626,7.626,0,1,1,7.5-7.625A7.563,7.563,0,0,1,25,24ZM25,9.75a6.626,6.626,0,1,0,6.75,6.625A6.688,6.688,0,0,0,25,9.75Zm0,0.75a5.876,5.876,0,1,1-5.75,5.875A5.814,5.814,0,0,1,25,10.5Z" transform="translate(-6.5 -4.75)"/>
</svg>
