<svg xmlns="http://www.w3.org/2000/svg" width="35" height="35" viewBox="0 0 35 35">
  <defs>
    <style>
      .cls-1 {
        fill: #fff;
        fill-rule: evenodd;
      }
    </style>
  </defs>
  <path class="cls-1" d="M25.506,43.016a17.508,17.508,0,1,1,17.5-17.508A17.5,17.5,0,0,1,25.506,43.016Zm0-32.6A15.093,15.093,0,1,0,40.593,25.508,15.09,15.09,0,0,0,25.506,10.415Zm0.012,1.224A13.879,13.879,0,1,1,11.632,25.518,13.882,13.882,0,0,1,25.518,11.639ZM22.489,12.83a100.859,100.859,0,0,1,8.449,6.037,11.174,11.174,0,0,1-8.449,0h0S24.591,20.7,24.9,24.9v1.207s-9.089-.492-10.863-3.622C14.04,22.489,14.381,15.471,22.489,12.83Zm13.277,6.037s3.612,7.423-1.207,14.489A11.431,11.431,0,0,1,24.9,36.978s-6.084-.276-8.449-4.83c0,0-.35-1.66,2.414-2.415a10.52,10.52,0,0,0,3.621,4.83s4.139-3.937,3.621-7.245c0,0,2.48.543,3.621,6.037,0,0,4.782-8.918,4.828-14.489,0,0,.012-0.545,0-1.207C34.552,17.313,35.426,18.01,35.766,18.867Z" transform="translate(-8 -8)"/>
</svg>
