<svg xmlns="http://www.w3.org/2000/svg" width="36.562" height="40" viewBox="0 0 36.562 40">
  <defs>
    <style>
      .cls-1 {
        fill: #fff;
        fill-rule: evenodd;
      }
    </style>
  </defs>
  <path id="tsicon_svg" data-name="tsicon svg" class="cls-1" d="M25,44.75A0.8,0.8,0,0,0,25.5,44c0.057-.624,1.331-0.695,1.25-1.25,0,0,.471.333-0.25-8,0,0-.168-0.075-0.25-6a4.368,4.368,0,0,1,1.25-2.5,2.666,2.666,0,0,1-1-1S25.764,22.01,29,23c0,0,1.463.093,1.5,2.75,0,0,4.648.11,3.75,7.5,0,0,4.781-4.512,3.75-11a23.523,23.523,0,0,1-5.25-.75A17.6,17.6,0,0,1,38,21a17.39,17.39,0,0,0-4-8.75A3.311,3.311,0,0,1,30.5,15s-1.708,6.259-4,3.25V18s1.456-.26,1.5-1.25S26.559,15.675,26.5,15c0,0-.4-0.447,1.25-1.75L28,13a4.782,4.782,0,0,1-1.75-2.5S25.481,9.067,25,4.75v40ZM29.25,26.5L32.5,31a20.647,20.647,0,0,1,0,3.25,14.993,14.993,0,0,1-2.25-2.5ZM33.5,37.75s9.458-3.335,9.75-15c0,0,.533-4.5-4-10,0,0-1.514-1.278-2.75-7.75,0,0-1.085,4.749-2,6v0.5s4.185,5.114,4.25,9.5c0,0,2.758.165,3,.5a6.522,6.522,0,0,1-3,.5,3.8,3.8,0,0,1,.5,1.5S39.7,28.614,34,34.75A10.515,10.515,0,0,1,33.5,37.75Zm-4.25-23.5,3-4.25a7.012,7.012,0,0,0,.25-3.25s-1.915,1.176-2.25,2.5ZM25,44.75A0.8,0.8,0,0,1,24.5,44c-0.057-.624-1.331-0.695-1.25-1.25,0,0-.471.333,0.25-8,0,0,.168-0.075.25-6a4.368,4.368,0,0,0-1.25-2.5,2.666,2.666,0,0,0,1-1S24.236,22.01,21,23c0,0-1.463.093-1.5,2.75,0,0-4.648.11-3.75,7.5,0,0-4.781-4.512-3.75-11a23.523,23.523,0,0,0,5.25-.75A17.6,17.6,0,0,0,12,21a17.39,17.39,0,0,1,4-8.75A3.311,3.311,0,0,0,19.5,15s1.708,6.259,4,3.25V18s-1.456-.26-1.5-1.25,1.441-1.075,1.5-1.75c0,0,.4-0.447-1.25-1.75L22,13a4.782,4.782,0,0,0,1.75-2.5S24.519,9.067,25,4.75v40ZM20.75,26.5L17.5,31a20.647,20.647,0,0,0,0,3.25,14.993,14.993,0,0,0,2.25-2.5ZM16.5,37.75s-9.458-3.335-9.75-15c0,0-.533-4.5,4-10,0,0,1.514-1.278,2.75-7.75,0,0,1.085,4.749,2,6v0.5s-4.185,5.114-4.25,9.5c0,0-2.758.165-3,.5a6.522,6.522,0,0,0,3,.5,3.8,3.8,0,0,0-.5,1.5S10.3,28.614,16,34.75A10.515,10.515,0,0,0,16.5,37.75Zm4.25-23.5-3-4.25a7.012,7.012,0,0,1-.25-3.25s1.915,1.176,2.25,2.5Z" transform="translate(-6.719 -4.75)"/>
</svg>
