<svg xmlns="http://www.w3.org/2000/svg" width="46.75" height="40.906" viewBox="0 0 46.75 40.906">
  <defs>
    <style>
      .cls-1 {
        fill: #fff;
        fill-rule: evenodd;
      }
    </style>
  </defs>
  <path id="baicon_svg" data-name="baicon svg" class="cls-1" d="M25,45s1.766-12.821,1.5-17.75a1.356,1.356,0,0,0-.25-0.5A0.929,0.929,0,0,1,26,26.275c0-.008,0-0.017,0-0.025a1.209,1.209,0,0,1,.5-1s0.255-.266-0.25-0.25a0.5,0.5,0,0,1-.5-0.5s-0.052-1.232,2-1.25c0,0,.615-0.1,0-0.25,0,0-1.278-.332-1.25-0.75V22a2.11,2.11,0,0,1,1.75-.75,1.891,1.891,0,0,1,1.25.25,0.54,0.54,0,0,0,.75,0,1.067,1.067,0,0,1,1-.25H36.5s0.476-.057,1.25,1A6.531,6.531,0,0,0,42.5,24.5a5.767,5.767,0,0,0,4.5-2s1.167-1.09,1.25-1.25c0,0-2.54.991-3.75,0.75,0,0-1.661.184-4-2.25,0,0-3.805-3.835-5.25-4.25,0,0-6.713-2.47-6.75-5.5,0,0-.5-0.12-0.75,1a4.459,4.459,0,0,0,0,2,2.362,2.362,0,0,1-1.25,2.25s-0.684.117-1-2.5c0,0-.406-2.012-0.493-2.692C25,10.038,25,10.018,25,10c-0.069-.614-0.191-0.426-0.25,0,0,0-.408,2.249-0.5,2.75,0,0-.205,2.268-1,2.5h0A2.142,2.142,0,0,1,22,13a4.781,4.781,0,0,0,0-2,1.421,1.421,0,0,0-.75-1s-0.426,3.345-6.5,5.5A19,19,0,0,0,10,19.25,6.758,6.758,0,0,1,5.75,22a13.514,13.514,0,0,1-4.25-.75A6.591,6.591,0,0,0,4.25,23.5a5.8,5.8,0,0,0,2.5,1,6.378,6.378,0,0,0,5-2s1.155-1.309,1.75-1.25h5.25a1.1,1.1,0,0,1,.75.25,0.489,0.489,0,0,0,.75,0,1.71,1.71,0,0,1,1.25-.25,2.091,2.091,0,0,1,1.75.75v0.25A1.777,1.777,0,0,1,22,23s-0.547.132,0,.25c0,0,1.817-.011,2,1.25a0.466,0.466,0,0,1-.5.5s-0.517-.043-0.25.25a1.435,1.435,0,0,1,.5,1,1.377,1.377,0,0,1-.25.5,0.983,0.983,0,0,0-.25.5s0.3,11.893,1.5,17.75C24.75,45,24.872,45.446,25,45Zm8-24.25h3.5A4.394,4.394,0,0,0,33.25,19a2.517,2.517,0,0,0-1.5.5,0.671,0.671,0,0,1-1-.5,2.386,2.386,0,0,0-2.25-.75s0.028-1.858-1-2c0,0-.584.03-0.5,0.5,0,0-.133.255-0.25,0,0,0-.368-0.679-0.75.5A3.217,3.217,0,0,0,25.75,20s0.428,0.848,3,.75a1.688,1.688,0,0,0,.5-0.25,0.682,0.682,0,0,1,1,0,0.839,0.839,0,0,0,.5.25H33Zm-16.25,0h-3.5A4.394,4.394,0,0,1,16.5,19a2.517,2.517,0,0,1,1.5.5,0.671,0.671,0,0,0,1-.5,2.386,2.386,0,0,1,2.25-.75s-0.028-1.858,1-2c0,0,.584.03,0.5,0.5,0,0,.133.255,0.25,0,0,0,.368-0.679.75,0.5A3.217,3.217,0,0,1,24,20s-0.428.848-3,.75a1.688,1.688,0,0,1-.5-0.25,0.682,0.682,0,0,0-1,0,0.839,0.839,0,0,1-.5.25H16.75ZM32.5,22.5a1.764,1.764,0,0,0-.75,1.25s-0.7-.89.75,16.5c0,0,.09.911,0.25,0s1.219-15.685.75-16.5a1.9,1.9,0,0,0-.75-1.25A0.216,0.216,0,0,0,32.5,22.5ZM33,4.5s-0.006,3.627,1.5,5.25a1.332,1.332,0,0,1,0,1S33.011,12.428,33,13.5a0.137,0.137,0,0,1-.25,0s-0.656-2.152-1.5-2.75a1.315,1.315,0,0,1,0-1s1.133-.481,1.5-5.25C32.75,4.5,32.9,4.043,33,4.5Zm-16.5,18a1.764,1.764,0,0,0-.75,1.25s-0.7-.89.75,16.5c0,0,.09.911,0.25,0s1.219-15.685.75-16.5a1.9,1.9,0,0,0-.75-1.25A0.216,0.216,0,0,0,16.5,22.5ZM17,4.5s-0.006,3.627,1.5,5.25a1.332,1.332,0,0,1,0,1S17.011,12.428,17,13.5a0.137,0.137,0,0,1-.25,0s-0.656-2.152-1.5-2.75a1.315,1.315,0,0,1,0-1s1.133-.481,1.5-5.25C16.75,4.5,16.9,4.043,17,4.5Z" transform="translate(-1.5 -4.281)"/>
</svg>
