<svg xmlns="http://www.w3.org/2000/svg" width="35.031" height="32.813" viewBox="0 0 35.031 32.813">
  <defs>
    <style>
      .cls-1 {
        fill: #fff;
        fill-rule: evenodd;
      }
    </style>
  </defs>
  <path class="cls-1" d="M25.521,10.173A12.162,12.162,0,1,1,13.339,22.335,12.172,12.172,0,0,1,25.521,10.173ZM22.873,11.23a88.505,88.505,0,0,1,7.415,5.288,9.825,9.825,0,0,1-7.415,0h0a7.944,7.944,0,0,1,2.119,5.288v1.058s-7.977-.431-9.534-3.173C15.458,19.691,15.757,13.543,22.873,11.23Zm11.652,5.288s3.17,6.5-1.059,12.691a10.041,10.041,0,0,1-8.475,3.173s-5.34-.242-7.415-4.23c0,0-.307-1.454,2.119-2.115a9.214,9.214,0,0,0,3.178,4.23s3.633-3.448,3.178-6.345c0,0,2.177.475,3.178,5.288,0,0,4.2-7.811,4.237-12.691,0,0,.011-0.477,0-1.058C33.461,15.157,34.227,15.768,34.525,16.518ZM14.4,31.324S11.665,32.873,11.22,34.5c0,0-.563,4.839,13.771,4.23H27.11s14.212-.171,12.712-4.23c-1.072-2.9-3.178-3.173-3.178-3.173S42.7,32.772,43,37.67c0,0,.214,5.21-15.89,5.288,0,0-18.415.793-19.068-5.288C8.042,37.67,6.934,34.551,14.4,31.324Z" transform="translate(-7.969 -10.188)"/>
</svg>
