<svg xmlns="http://www.w3.org/2000/svg" width="66" height="85" viewBox="0 0 66 85">
  <defs>
    <style>
      .cls-1 {
        fill: #fff;
        fill-rule: evenodd;
      }
    </style>
  </defs>
  <path class="cls-1" d="M58,88H56S34.448,86.935,32,66V30l3,2v8l10.971,9.142a12.973,12.973,0,0,1,22.059,0L79,40V32l3-2V66S78.062,88.008,58,88Zm1-3s3.072,0.444,7-2l-1-8,5,6a6.888,6.888,0,0,0,3-3L66,67l9,8a7.912,7.912,0,0,0,3-5l-9.3-8.368a12.985,12.985,0,0,1-10.727,7.318L58,69S57.983,81.138,59,85ZM39,75l9-8L41,78a6.309,6.309,0,0,0,3,3l5-6-1,8a12.888,12.888,0,0,0,7,2,147.336,147.336,0,0,0,1-16l0.025-.049A12.985,12.985,0,0,1,45.3,61.632L36,70S36.275,73.635,39,75ZM35,44v7l7,3H35V66l10.174-4.624a12.907,12.907,0,0,1,.637-11.97ZM79,54H72l7-3V44L68.189,49.405a12.907,12.907,0,0,1,.637,11.97L79,66V54ZM57,52a7,7,0,1,1-7,7A7,7,0,0,1,57,52ZM90,24l-4,3V67S82.76,89.693,59,92H55s-20.925-.605-27-24V27l-4-3V68s3.742,28.161,31,28h4s27.076,0.579,31-29V24ZM68,38l8-10a1.537,1.537,0,0,0-2-2Zm8-15a2.852,2.852,0,0,1,2,2l4-6s0.108-2.8-3-2ZM62,36l5-12s-0.052-2.093-2-1Zm6-16a1.289,1.289,0,0,0-2-1l1-6s2.691-.823,3,1ZM46,38L38,28a1.537,1.537,0,0,1,2-2ZM38,23a2.852,2.852,0,0,0-2,2l-4-6s-0.108-2.8,3-2ZM52,36L47,24s0.052-2.093,2-1ZM46,20a1.289,1.289,0,0,1,2-1l-1-6s-2.691-.823-3,1Zm10-8a1.057,1.057,0,0,1,1-1,1.073,1.073,0,0,1,1,1v6a1.743,1.743,0,0,0-2,0V12Zm0,10a1.291,1.291,0,0,1,2,0,134.269,134.269,0,0,1-1,14S56.223,30.217,56,22Z" transform="translate(-24 -11)"/>
</svg>
