<svg xmlns="http://www.w3.org/2000/svg" width="39.998" height="45.355" viewBox="0 0 63.469 71.969">
  <defs>
    <style>
      .cls-1 {
        fill: #343330;
        fill-rule: evenodd;
      }
    </style>
  </defs>
  <path id="Color_Fill_1" data-name="Color Fill 1" class="cls-1" d="M42.533,15.141c4.519-.016,16.285-0.837,19.225.6a9.252,9.252,0,0,1,4.582,6.275c0.455,2.07-.24,4.508.8,5.877l5.279,3.984c3.864,3.1,6.716,8.289,8.666,13.248,1.645,4.182,2.095,10.971.9,16.336-3.142,14.071-10.6,21.445-24.5,24.7a30.669,30.669,0,0,1-16.834-1.1C28.2,80,15.084,66.242,20.42,47.016c1.662-5.986,4.892-11.709,9.164-15.141l5.479-4.184c1.716-2.2.583-5.562,1.693-8.268C37.873,16.7,39.81,16.333,42.533,15.141Z" transform="translate(-19.188 -14.906)"/>
</svg>
