<svg xmlns="http://www.w3.org/2000/svg" width="39.188" height="35" viewBox="0 0 39.188 35">
  <defs>
    <style>
      .cls-1 {
        fill: #fff;
        fill-rule: evenodd;
      }
    </style>
  </defs>
  <path class="cls-1" d="M8,43H45a27.85,27.85,0,0,0-5-10,11.727,11.727,0,0,1,0-2h4s-0.828-2.016-4-4V26h4a6.988,6.988,0,0,0-4-4V20h4S38.875,10.925,24,8c0,0,1.1,4.955,0,5H20a20.151,20.151,0,0,0-4,3s0.24,1.043-5,1c0,0-4.333-.162-5,1,0,0-1.129,2.507,2,9,0,0,1.413-3.1,3-3h3a4.541,4.541,0,0,0,1,3s1.3-2.785,3-3c0,0,3.179-1.243,5,0,0,0,.3,2.233-1,3,0,0-3.246.745-4-2a6.574,6.574,0,0,0-2,4,5.938,5.938,0,0,1-4-3s-1.805,5.742-1,9a2.752,2.752,0,0,1,2-1s3.546-1.652,13-3v1s-6.286.737-8,3c0,0-1.331,2.079-1.051,2.894A0.5,0.5,0,0,0,17,38C17.46,38.721,9.209,42.111,8,43ZM23,12s0.346-2.569-3-4H19S19.446,13.363,23,12Z" transform="translate(-5.813 -8)"/>
</svg>
